<?xml version="1.0" encoding="utf-8"?>
<!-- Generator: Adobe Illustrator 16.0.0, SVG Export Plug-In . SVG Version: 6.00 Build 0)  -->
<!DOCTYPE svg PUBLIC "-//W3C//DTD SVG 1.1//EN" "http://www.w3.org/Graphics/SVG/1.1/DTD/svg11.dtd">
<svg version="1.1" id="Layer_1" xmlns="http://www.w3.org/2000/svg" xmlns:xlink="http://www.w3.org/1999/xlink" x="0px" y="0px"
	 width="184.238px" height="93.363px" viewBox="0 0 184.238 93.363" enable-background="new 0 0 184.238 93.363"
	 xml:space="preserve">
<g>
	<g>
		<g>
			<path fill="#F9A553" d="M181.021,69.746c0-1.665,1.979-3.014,2.979-3.066v-3.093c-1-0.052-2.979-1.401-2.979-3.066
				S183,57.506,184,57.454v-3.093c-1-0.053-2.979-1.401-2.979-3.066S183,48.281,184,48.228v-3.092c-1-0.053-2.979-1.401-2.979-3.067
				S183,39.055,184,39.002V35.91c-1-0.052-2.979-1.401-2.979-3.066S183,29.829,184,29.777v-3.093c-1-0.053-2.979-1.401-2.979-3.066
				c0-1.666,1.979-3.014,2.979-3.067v-4.575c-8,0-15.426-7.152-15.426-15.976H16.287c0,8.823-6.95,15.976-16.287,15.976v4.575
				c0.623-0.001,0.22-0.01,0.253-0.01c1.699,0,3.154,1.377,3.154,3.077c0,1.698-1.494,3.076-3.193,3.076
				c-0.034,0,0.408-0.009-0.214-0.01v3.093c0.623-0.001,0.22-0.01,0.253-0.01c1.699,0,3.154,1.377,3.154,3.076
				s-1.494,3.076-3.193,3.076c-0.034,0,0.408-0.009-0.214-0.01v3.093c0.623-0.001,0.22-0.01,0.253-0.01
				c1.699,0,3.154,1.377,3.154,3.076s-1.494,3.077-3.193,3.077c-0.034,0,0.408-0.009-0.214-0.01v3.092c0.623,0,0.22-0.01,0.253-0.01
				c1.699,0,3.154,1.378,3.154,3.077s-1.494,3.076-3.193,3.076c-0.034,0,0.408-0.009-0.214-0.01v3.093
				c0.623-0.001,0.22-0.01,0.253-0.01c1.699,0,3.154,1.377,3.154,3.076s-1.494,3.076-3.193,3.076c-0.034,0,0.408-0.009-0.214-0.01
				v3.093c0.623-0.001,0.22-0.01,0.253-0.01c1.699,0,3.154,1.378,3.154,3.076c0,1.699-1.494,3.076-3.193,3.076
				c-0.034,0,0.408-0.009-0.214-0.009v4.575C9.336,77.388,16.287,85,16.287,93h152.288c0-8,7.426-15.612,15.426-15.612v-4.575
				C183,72.76,181.021,71.412,181.021,69.746z"/>
		</g>
		<path fill="none" stroke="#46484A" stroke-width="2" stroke-miterlimit="10" d="M162,79.776c0,3.438-2.787,6.224-6.225,6.224
			H28.225C24.787,86,22,83.213,22,79.776V13.224C22,9.787,24.787,7,28.225,7h127.551C159.213,7,162,9.787,162,13.224V79.776z"/>
		<line fill="none" stroke="#46484A" stroke-width="2" stroke-miterlimit="10" x1="40" y1="7" x2="40" y2="86"/>
		<line fill="none" stroke="#46484A" stroke-width="2" stroke-miterlimit="10" x1="101" y1="7" x2="101" y2="86"/>
		<g>
			<path fill="#46484A" d="M34.098,29.275v-0.021l-0.645-1.19l0.708-0.179l0.804,1.495v0.79h-6.874v-0.895H34.098z"/>
			<path fill="#46484A" d="M28.092,33.929h0.571l0.708,0.727c1.671,1.748,2.559,2.538,3.596,2.548c0.698,0,1.343-0.337,1.343-1.358
				c0-0.621-0.317-1.137-0.582-1.453l0.655-0.295c0.402,0.474,0.698,1.148,0.698,1.938c0,1.474-1.015,2.095-1.999,2.095
				c-1.269,0-2.295-0.916-3.69-2.358l-0.508-0.547h-0.021v3.074h-0.772V33.929z"/>
			<path fill="#46484A" d="M29.16,40.815c-0.169,0.263-0.434,0.874-0.434,1.516c0,1.19,0.762,1.558,1.333,1.548
				c0.962-0.011,1.375-0.874,1.375-1.769v-0.516h0.698v0.516c0,0.674,0.349,1.527,1.163,1.527c0.55,0,1.036-0.348,1.036-1.2
				c0-0.547-0.243-1.074-0.455-1.369l0.677-0.242c0.264,0.358,0.529,1.053,0.529,1.79c0,1.348-0.804,1.958-1.639,1.958
				c-0.708,0-1.311-0.421-1.618-1.264h-0.021c-0.169,0.842-0.804,1.527-1.766,1.527c-1.1,0-2.062-0.853-2.062-2.495
				c0-0.769,0.243-1.442,0.465-1.779L29.16,40.815z"/>
			<path fill="#46484A" d="M28.092,50.124h1.872v-3.18h0.613l4.389,3.054v1h-4.272v0.958h-0.729v-0.958h-1.872V50.124z
				 M30.693,50.124h2.295c0.359,0,0.719,0.011,1.079,0.032v-0.032c-0.402-0.21-0.698-0.379-1.015-0.568l-2.337-1.674h-0.021V50.124z
				"/>
			<path fill="#46484A" d="M34.183,58.01v-2.611l-1.766-0.263c0.021,0.158,0.042,0.305,0.042,0.558c0,0.526-0.116,1.053-0.37,1.474
				c-0.307,0.537-0.899,0.979-1.766,0.979c-1.343,0-2.347-1.063-2.347-2.548c0-0.748,0.211-1.379,0.423-1.706l0.708,0.231
				c-0.169,0.284-0.381,0.842-0.381,1.463c0,0.874,0.571,1.622,1.491,1.622c0.888-0.011,1.522-0.6,1.522-1.969
				c0-0.39-0.042-0.695-0.074-0.948l3.299,0.442v3.274H34.183z"/>
			<path fill="#46484A" d="M34.31,64.497c0.011-0.189,0-0.432-0.042-0.695c-0.243-1.453-1.311-2.222-2.442-2.379v0.031
				c0.434,0.327,0.793,0.895,0.793,1.653c0,1.21-0.878,2.063-2.221,2.063c-1.258,0-2.421-0.853-2.421-2.274
				c0-1.464,1.142-2.422,2.929-2.422c1.354,0,2.421,0.484,3.098,1.158c0.561,0.568,0.909,1.327,1.015,2.19
				c0.042,0.274,0.053,0.505,0.053,0.674H34.31z M30.344,64.233c0.983,0,1.576-0.558,1.576-1.411c0-0.558-0.349-1.074-0.846-1.327
				c-0.106-0.063-0.243-0.105-0.413-0.105c-1.131,0.021-1.967,0.537-1.967,1.506C28.694,63.696,29.361,64.233,30.344,64.233z"/>
		</g>
		<g>
			<path fill="#46484A" d="M115.711,26.286l-0.784,2.374h-1.008l2.564-7.549h1.176l2.576,7.549h-1.041l-0.807-2.374H115.711z
				 M118.186,25.524l-0.739-2.173c-0.168-0.493-0.279-0.94-0.392-1.378h-0.022c-0.112,0.448-0.235,0.907-0.381,1.367l-0.739,2.184
				H118.186z"/>
			<path fill="#46484A" d="M122.467,21.213c0.593-0.09,1.299-0.157,2.071-0.157c1.4,0,2.397,0.325,3.058,0.94
				c0.672,0.616,1.064,1.49,1.064,2.711c0,1.231-0.381,2.24-1.087,2.935c-0.705,0.705-1.87,1.086-3.337,1.086
				c-0.694,0-1.277-0.033-1.77-0.09V21.213z M123.44,27.888c0.247,0.045,0.605,0.056,0.986,0.056c2.083,0,3.214-1.164,3.214-3.203
				c0.012-1.78-0.997-2.912-3.058-2.912c-0.504,0-0.885,0.045-1.143,0.102V27.888z"/>
			<path fill="#46484A" d="M137.411,25.346c-0.056-1.054-0.123-2.319-0.112-3.26h-0.033c-0.258,0.885-0.571,1.826-0.952,2.867
				l-1.333,3.662h-0.739l-1.221-3.595c-0.358-1.064-0.661-2.038-0.873-2.935h-0.022c-0.022,0.94-0.079,2.206-0.146,3.338
				l-0.202,3.236h-0.93l0.526-7.549h1.243l1.288,3.651c0.313,0.93,0.571,1.759,0.762,2.543h0.033c0.19-0.762,0.46-1.591,0.796-2.543
				l1.344-3.651h1.243l0.471,7.549h-0.952L137.411,25.346z"/>
			<path fill="#46484A" d="M142.151,21.111v7.549h-0.974v-7.549H142.151z"/>
			<path fill="#46484A" d="M146.409,21.94h-2.296v-0.829h5.588v0.829h-2.307v6.72h-0.985V21.94z"/>
		</g>
		<g>
			<path fill="#46484A" d="M130.525,41.386h-0.109l-6.19,3.341l-0.931-3.67l7.778-4.163h4.108V72.5h-4.656V41.386z"/>
		</g>
	</g>
</g>
</svg>
