<?xml version="1.0" encoding="utf-8"?>
<!-- Generator: Adobe Illustrator 16.0.0, SVG Export Plug-In . SVG Version: 6.00 Build 0)  -->
<!DOCTYPE svg PUBLIC "-//W3C//DTD SVG 1.1//EN" "http://www.w3.org/Graphics/SVG/1.1/DTD/svg11.dtd">
<svg version="1.1" id="Layer_1" xmlns="http://www.w3.org/2000/svg" xmlns:xlink="http://www.w3.org/1999/xlink" x="0px" y="0px"
	 width="184.238px" height="93.363px" viewBox="0 0 184.238 93.363" enable-background="new 0 0 184.238 93.363"
	 xml:space="preserve">
<g>
	<g>
		<g>
			<path fill="#E7D3B4" d="M181.637,93c-0.411,0-0.926-1.403-0.926-2.316c0-2.317,1.289-4.072,3.289-4.593v-0.286
				c-2-0.521-3.563-2.458-3.563-4.776c0-2.316,1.563-4.253,3.563-4.775v-0.286c-2-0.521-3.563-2.458-3.563-4.775
				c0-2.316,1.563-4.253,3.563-4.775v-0.286c-2-0.521-3.563-2.459-3.563-4.775c0-2.317,1.563-4.254,3.563-4.775v-0.286
				c-2-0.521-3.563-2.457-3.563-4.775c0-2.316,1.563-4.253,3.563-4.774v-0.286c-2-0.521-3.563-2.458-3.563-4.775
				c0-2.317,1.563-4.254,3.563-4.776v-0.286c-2-0.521-3.563-2.458-3.563-4.775c0-2.316,1.563-4.254,3.563-4.775v-0.286
				c-2-0.521-3.563-2.458-3.563-4.775c0-2.316,1.563-4.254,3.563-4.775v-0.286c-2-0.521-3.563-2.458-3.563-4.775
				c0-2.316,1.563-4.253,3.563-4.775V7.118c-2-0.521-3.289-2.458-3.289-4.775c0-0.848,0.479-1.646,0.836-2.342H3.313
				c0.358,0.696,0.406,1.494,0.406,2.342C3.719,4.659,2.49,6.597,0,7.118v0.286c2.49,0.521,3.563,2.458,3.563,4.775
				c0,2.317-1.074,4.254-3.563,4.775v0.286c2.49,0.521,3.563,2.458,3.563,4.775c0,2.317-1.074,4.254-3.563,4.775v0.286
				c2.49,0.521,3.563,2.459,3.563,4.775c0,2.317-1.074,4.254-3.563,4.775v0.286c2.49,0.521,3.563,2.458,3.563,4.776
				c0,2.316-1.074,4.253-3.563,4.775v0.286c2.49,0.521,3.563,2.458,3.563,4.774c0,2.318-1.074,4.254-3.563,4.775v0.286
				c2.49,0.521,3.563,2.458,3.563,4.775c0,2.316-1.074,4.254-3.563,4.775v0.286c2.49,0.521,3.563,2.458,3.563,4.775
				c0,2.317-1.074,4.254-3.563,4.775v0.286c2.49,0.521,3.563,2.458,3.563,4.775c0,2.317-1.074,4.254-3.563,4.776v0.286
				c2.49,0.521,3.719,2.275,3.719,4.593C3.719,91.597,3.635,93,3.223,93H181.637z"/>
		</g>
		<path fill="none" stroke="#46484A" stroke-width="2" stroke-miterlimit="10" d="M171,77.775c0,3.438-2.787,6.225-6.224,6.225
			H19.224C15.787,84,13,81.213,13,77.775V15.225C13,11.787,15.787,9,19.224,9h145.552c3.438,0,6.224,2.787,6.224,6.225V77.775z"/>
		<line fill="none" stroke="#46484A" stroke-width="2" stroke-miterlimit="10" x1="153" y1="9" x2="153" y2="84"/>
		<g>
			<path fill="#46484A" d="M159.998,64.28v0.021l0.645,1.195l-0.708,0.18l-0.804-1.501v-0.793h6.874v0.899H159.998z"/>
			<path fill="#46484A" d="M166.004,59.602h-0.571l-0.708-0.729c-1.671-1.755-2.559-2.548-3.596-2.559
				c-0.698,0-1.343,0.338-1.343,1.364c0,0.624,0.317,1.142,0.582,1.459l-0.655,0.296c-0.402-0.476-0.698-1.153-0.698-1.946
				c0-1.48,1.015-2.104,1.999-2.104c1.269,0,2.295,0.92,3.69,2.369l0.508,0.55h0.021v-3.088h0.772V59.602z"/>
			<path fill="#46484A" d="M164.936,52.682c0.169-0.265,0.434-0.878,0.434-1.523c0-1.195-0.762-1.565-1.333-1.554
				c-0.962,0.01-1.375,0.877-1.375,1.776v0.518h-0.698v-0.518c0-0.677-0.349-1.533-1.163-1.533c-0.55,0-1.036,0.349-1.036,1.206
				c0,0.55,0.243,1.079,0.455,1.375l-0.677,0.243c-0.264-0.359-0.529-1.058-0.529-1.798c0-1.354,0.804-1.967,1.639-1.967
				c0.708,0,1.311,0.423,1.618,1.269h0.021c0.169-0.846,0.804-1.533,1.766-1.533c1.1,0,2.062,0.856,2.062,2.506
				c0,0.771-0.243,1.448-0.465,1.787L164.936,52.682z"/>
			<path fill="#46484A" d="M166.004,43.33h-1.872v3.193h-0.613l-4.389-3.066v-1.004h4.272V41.49h0.729v0.962h1.872V43.33z
				 M163.403,43.33h-2.295c-0.359,0-0.719-0.011-1.079-0.032v0.032c0.402,0.211,0.698,0.381,1.015,0.571l2.337,1.682h0.021V43.33z"
				/>
			<path fill="#46484A" d="M159.913,35.406v2.623l1.766,0.264c-0.021-0.159-0.042-0.307-0.042-0.561c0-0.529,0.116-1.057,0.37-1.48
				c0.307-0.539,0.899-0.983,1.766-0.983c1.343,0,2.347,1.068,2.347,2.559c0,0.751-0.211,1.385-0.423,1.713l-0.708-0.232
				c0.169-0.286,0.381-0.846,0.381-1.47c0-0.878-0.571-1.628-1.491-1.628c-0.888,0.01-1.522,0.603-1.522,1.977
				c0,0.392,0.042,0.698,0.074,0.952l-3.299-0.444v-3.289H159.913z"/>
			<path fill="#46484A" d="M159.786,28.888c-0.011,0.19,0,0.434,0.042,0.698c0.243,1.459,1.311,2.231,2.442,2.39v-0.032
				c-0.434-0.328-0.793-0.899-0.793-1.66c0-1.216,0.878-2.073,2.221-2.073c1.258,0,2.421,0.856,2.421,2.284
				c0,1.47-1.142,2.432-2.929,2.432c-1.354,0-2.421-0.486-3.098-1.163c-0.561-0.571-0.909-1.333-1.015-2.2
				c-0.042-0.275-0.053-0.507-0.053-0.677H159.786z M163.751,29.152c-0.983,0-1.576,0.561-1.576,1.417
				c0,0.561,0.349,1.079,0.846,1.333c0.106,0.063,0.243,0.106,0.413,0.106c1.131-0.021,1.967-0.54,1.967-1.512
				C165.401,29.691,164.735,29.152,163.751,29.152z"/>
		</g>
		<line fill="none" stroke="#46484A" stroke-width="2" stroke-miterlimit="10" x1="31" y1="28" x2="153" y2="28"/>
		<g>
			<path fill="#46484A" d="M47.853,19.395c0-0.425,0.296-0.744,0.71-0.744c0.413,0,0.686,0.307,0.697,0.744
				c0,0.426-0.284,0.745-0.709,0.745C48.137,20.14,47.841,19.82,47.853,19.395z"/>
			<path fill="#46484A" d="M58.259,19.998l-0.828,2.507h-1.064l2.709-7.97h1.241l2.72,7.97h-1.1l-0.852-2.507H58.259z
				 M60.872,19.194l-0.78-2.295c-0.178-0.52-0.296-0.993-0.414-1.454h-0.023c-0.118,0.473-0.248,0.958-0.402,1.442l-0.78,2.307
				H60.872z"/>
			<path fill="#46484A" d="M66.1,14.642c0.627-0.095,1.372-0.166,2.188-0.166c1.479,0,2.531,0.343,3.229,0.993
				c0.71,0.65,1.124,1.573,1.124,2.862c0,1.301-0.402,2.365-1.147,3.098c-0.745,0.745-1.975,1.147-3.524,1.147
				c-0.732,0-1.348-0.035-1.868-0.095V14.642z M67.129,21.689c0.26,0.047,0.638,0.059,1.04,0.059c2.2,0,3.395-1.229,3.395-3.382
				c0.012-1.88-1.053-3.074-3.229-3.074c-0.532,0-0.935,0.047-1.206,0.106V21.689z"/>
			<path fill="#46484A" d="M82.585,19.005c-0.06-1.111-0.131-2.448-0.118-3.441h-0.036c-0.271,0.935-0.603,1.928-1.005,3.027
				l-1.407,3.867h-0.78l-1.289-3.796c-0.379-1.124-0.698-2.152-0.923-3.099h-0.023c-0.023,0.993-0.083,2.33-0.153,3.524
				l-0.213,3.417h-0.981l0.556-7.97h1.312l1.359,3.854c0.332,0.981,0.604,1.856,0.805,2.685h0.035
				c0.201-0.804,0.485-1.68,0.84-2.685l1.419-3.854h1.312l0.497,7.97h-1.005L82.585,19.005z"/>
			<path fill="#46484A" d="M88.297,14.535v7.97h-1.029v-7.97H88.297z"/>
			<path fill="#46484A" d="M93.5,15.41h-2.425v-0.875h5.901v0.875H94.54v7.095H93.5V15.41z"/>
			<path fill="#46484A" d="M110.966,18.438c0,2.743-1.667,4.197-3.701,4.197c-2.105,0-3.583-1.632-3.583-4.044
				c0-2.53,1.572-4.187,3.701-4.187C109.559,14.404,110.966,16.072,110.966,18.438z M104.781,18.567
				c0,1.703,0.922,3.229,2.542,3.229c1.632,0,2.555-1.502,2.555-3.312c0-1.585-0.828-3.24-2.543-3.24
				C105.633,15.244,104.781,16.817,104.781,18.567z"/>
			<path fill="#46484A" d="M114.195,22.505v-7.97h1.123l2.555,4.032c0.591,0.934,1.052,1.773,1.431,2.59l0.023-0.012
				c-0.095-1.064-0.118-2.034-0.118-3.276v-3.334h0.97v7.97h-1.041l-2.53-4.044c-0.556-0.887-1.088-1.798-1.49-2.661l-0.035,0.012
				c0.059,1.006,0.083,1.963,0.083,3.288v3.405H114.195z"/>
			<path fill="#46484A" d="M127.995,18.769h-3.098v2.873h3.453v0.863h-4.482v-7.97h4.305v0.863h-3.275v2.519h3.098V18.769z"/>
			<path fill="#46484A" d="M135.6,19.395c0-0.425,0.295-0.744,0.709-0.744s0.686,0.307,0.698,0.744c0,0.426-0.284,0.745-0.71,0.745
				C135.883,20.14,135.587,19.82,135.6,19.395z"/>
		</g>
		<g>
			<g>
				<path fill="#46484A" d="M55.498,58.577h-6.125v-2.211h14.908v2.211h-6.154v17.926h-2.629V58.577z"/>
				<path fill="#46484A" d="M69.122,56.366v20.137h-2.6V56.366H69.122z"/>
				<path fill="#46484A" d="M87.735,75.846c-0.956,0.479-2.868,0.956-5.318,0.956c-5.676,0-9.949-3.585-9.949-10.188
					c0-6.305,4.272-10.576,10.517-10.576c2.509,0,4.093,0.537,4.78,0.896l-0.627,2.121c-0.986-0.478-2.39-0.836-4.063-0.836
					c-4.72,0-7.857,3.018-7.857,8.306c0,4.93,2.838,8.097,7.738,8.097c1.583,0,3.197-0.329,4.242-0.837L87.735,75.846z"/>
				<path fill="#46484A" d="M90.991,56.366h2.6v9.71h0.089c0.538-0.776,1.076-1.494,1.583-2.151l6.155-7.559h3.227l-7.29,8.545
					l7.858,11.592h-3.078l-6.632-9.889l-1.912,2.211v7.678h-2.6V56.366z"/>
				<path fill="#46484A" d="M117.611,67.062h-7.828v7.26h8.724v2.181h-11.323V56.366h10.875v2.181h-8.276v6.364h7.828V67.062z"/>
				<path fill="#46484A" d="M126.185,58.577h-6.125v-2.211h14.908v2.211h-6.154v17.926h-2.629V58.577z"/>
			</g>
		</g>
		<g>
			<path fill="#46484A" d="M24.035,29.395v-0.021l-0.645-1.195l0.708-0.18l0.804,1.501v0.793h-6.874v-0.899H24.035z"/>
			<path fill="#46484A" d="M18.029,34.073H18.6l0.708,0.729c1.671,1.755,2.559,2.548,3.596,2.559c0.698,0,1.343-0.338,1.343-1.364
				c0-0.624-0.317-1.142-0.582-1.459l0.655-0.296c0.402,0.476,0.698,1.153,0.698,1.946c0,1.48-1.015,2.104-1.999,2.104
				c-1.269,0-2.295-0.92-3.69-2.369l-0.508-0.55h-0.021v3.088h-0.772V34.073z"/>
			<path fill="#46484A" d="M19.097,40.993c-0.169,0.265-0.434,0.878-0.434,1.523c0,1.195,0.762,1.565,1.333,1.554
				c0.962-0.01,1.375-0.877,1.375-1.776v-0.518h0.698v0.518c0,0.677,0.349,1.533,1.163,1.533c0.55,0,1.036-0.349,1.036-1.206
				c0-0.55-0.243-1.079-0.455-1.375l0.677-0.243c0.264,0.359,0.529,1.058,0.529,1.798c0,1.354-0.804,1.967-1.639,1.967
				c-0.708,0-1.311-0.423-1.618-1.269H21.74c-0.169,0.846-0.804,1.533-1.766,1.533c-1.1,0-2.062-0.856-2.062-2.506
				c0-0.771,0.243-1.448,0.465-1.787L19.097,40.993z"/>
			<path fill="#46484A" d="M18.029,50.345H19.9v-3.193h0.613l4.389,3.066v1.004H20.63v0.962H19.9v-0.962h-1.872V50.345z
				 M20.63,50.345h2.295c0.359,0,0.719,0.011,1.079,0.032v-0.032c-0.402-0.211-0.698-0.381-1.015-0.571l-2.337-1.682H20.63V50.345z"
				/>
			<path fill="#46484A" d="M24.12,58.269v-2.623l-1.766-0.264c0.021,0.159,0.042,0.307,0.042,0.561c0,0.529-0.116,1.057-0.37,1.48
				c-0.307,0.539-0.899,0.983-1.766,0.983c-1.343,0-2.347-1.068-2.347-2.559c0-0.751,0.211-1.385,0.423-1.713l0.708,0.232
				c-0.169,0.286-0.381,0.846-0.381,1.47c0,0.878,0.571,1.628,1.491,1.628c0.888-0.01,1.522-0.603,1.522-1.977
				c0-0.392-0.042-0.698-0.074-0.952l3.299,0.444v3.289H24.12z"/>
			<path fill="#46484A" d="M24.247,64.787c0.011-0.19,0-0.434-0.042-0.698c-0.243-1.459-1.311-2.231-2.442-2.39v0.032
				c0.434,0.328,0.793,0.899,0.793,1.66c0,1.216-0.878,2.073-2.221,2.073c-1.258,0-2.421-0.856-2.421-2.284
				c0-1.47,1.142-2.432,2.929-2.432c1.354,0,2.421,0.486,3.098,1.163c0.561,0.571,0.909,1.333,1.015,2.2
				c0.042,0.275,0.053,0.507,0.053,0.677H24.247z M20.281,64.523c0.983,0,1.576-0.561,1.576-1.417c0-0.561-0.349-1.079-0.846-1.333
				c-0.105-0.063-0.243-0.106-0.413-0.106c-1.131,0.021-1.967,0.54-1.967,1.512C18.631,63.983,19.298,64.523,20.281,64.523z"/>
		</g>
		<line fill="none" stroke="#46484A" stroke-width="2" stroke-miterlimit="10" x1="30" y1="9" x2="30" y2="84"/>
	</g>
</g>
</svg>
