<?xml version="1.0" encoding="utf-8"?>
<!-- Generator: Adobe Illustrator 16.0.0, SVG Export Plug-In . SVG Version: 6.00 Build 0)  -->
<!DOCTYPE svg PUBLIC "-//W3C//DTD SVG 1.1//EN" "http://www.w3.org/Graphics/SVG/1.1/DTD/svg11.dtd">
<svg version="1.1" id="Layer_1" xmlns="http://www.w3.org/2000/svg" xmlns:xlink="http://www.w3.org/1999/xlink" x="0px" y="0px"
	 width="184.238px" height="93.363px" viewBox="0 0 184.238 93.363" enable-background="new 0 0 184.238 93.363"
	 xml:space="preserve">
<g>
	<g>
		<g>
			<path fill="#EDD2A3" d="M184,32.574V0H0v32.574c8.092,0,14.108,6.316,14.108,14.108S8.092,60.79,0,60.79V93h184V60.79
				c-7,0-14.108-6.315-14.108-14.107S177,32.574,184,32.574z"/>
		</g>
		<g>
			<path fill="#46484A" d="M73.185,15.734H70.76v-0.875h5.901v0.875h-2.437v7.095h-1.04V15.734z"/>
			<path fill="#46484A" d="M80.469,14.859v7.97H79.44v-7.97H80.469z"/>
			<path fill="#46484A" d="M89.729,22.569c-0.379,0.189-1.136,0.378-2.105,0.378c-2.247,0-3.938-1.419-3.938-4.032
				c0-2.495,1.69-4.187,4.162-4.187c0.993,0,1.62,0.213,1.893,0.355l-0.249,0.839c-0.39-0.188-0.945-0.331-1.607-0.331
				c-1.869,0-3.11,1.194-3.11,3.288c0,1.951,1.123,3.204,3.062,3.204c0.627,0,1.266-0.13,1.68-0.331L89.729,22.569z"/>
			<path fill="#46484A" d="M92.91,14.859h1.028v3.843h0.035c0.213-0.308,0.426-0.591,0.627-0.852l2.437-2.991h1.277l-2.886,3.382
				l3.11,4.588H97.32l-2.625-3.914l-0.757,0.875v3.039H92.91V14.859z"/>
			<path fill="#46484A" d="M105.339,19.093h-3.099v2.873h3.453v0.863h-4.481v-7.97h4.304v0.863h-3.275v2.519h3.099V19.093z"/>
			<path fill="#46484A" d="M110.624,15.734H108.2v-0.875h5.9v0.875h-2.436v7.095h-1.041V15.734z"/>
		</g>
		<rect x="18" y="10" fill="none" stroke="#46484A" stroke-width="2" stroke-miterlimit="10" width="148" height="17"/>
		<g>
			<path fill="#46484A" d="M58.26,76.34l-0.828,2.507h-1.064l2.709-7.971h1.241l2.72,7.971h-1.1l-0.852-2.507H58.26z M60.873,75.536
				l-0.78-2.294c-0.178-0.521-0.296-0.993-0.414-1.454h-0.023c-0.118,0.473-0.248,0.958-0.402,1.442l-0.78,2.306H60.873z"/>
			<path fill="#46484A" d="M66.101,70.983c0.626-0.095,1.371-0.165,2.188-0.165c1.478,0,2.53,0.343,3.229,0.993
				c0.709,0.65,1.123,1.572,1.123,2.861c0,1.301-0.402,2.365-1.147,3.099c-0.744,0.745-1.975,1.147-3.523,1.147
				c-0.733,0-1.349-0.036-1.868-0.095V70.983z M67.129,78.031c0.26,0.048,0.639,0.06,1.041,0.06c2.199,0,3.394-1.229,3.394-3.382
				c0.012-1.881-1.053-3.075-3.229-3.075c-0.532,0-0.934,0.048-1.206,0.106V78.031z"/>
			<path fill="#46484A" d="M82.585,75.347c-0.059-1.112-0.13-2.448-0.118-3.441h-0.035c-0.272,0.934-0.604,1.928-1.006,3.027
				L80.019,78.8h-0.78l-1.289-3.797c-0.378-1.123-0.697-2.151-0.922-3.098h-0.023c-0.024,0.993-0.083,2.329-0.154,3.523
				l-0.213,3.418h-0.981l0.556-7.971h1.312l1.36,3.855c0.331,0.981,0.604,1.856,0.804,2.685h0.036
				c0.201-0.805,0.484-1.68,0.839-2.685l1.42-3.855h1.312l0.496,7.971h-1.005L82.585,75.347z"/>
			<path fill="#46484A" d="M88.298,70.876v7.971h-1.029v-7.971H88.298z"/>
			<path fill="#46484A" d="M93.501,71.751h-2.425v-0.875h5.901v0.875h-2.437v7.096h-1.04V71.751z"/>
			<path fill="#46484A" d="M110.967,74.779c0,2.744-1.667,4.198-3.701,4.198c-2.105,0-3.583-1.632-3.583-4.044
				c0-2.531,1.572-4.187,3.701-4.187C109.56,70.747,110.967,72.415,110.967,74.779z M104.782,74.91c0,1.702,0.922,3.228,2.543,3.228
				c1.632,0,2.554-1.501,2.554-3.311c0-1.585-0.827-3.24-2.542-3.24C105.634,71.586,104.782,73.159,104.782,74.91z"/>
			<path fill="#46484A" d="M114.195,78.847v-7.971h1.124l2.554,4.033c0.592,0.934,1.053,1.773,1.432,2.59l0.023-0.013
				c-0.095-1.063-0.118-2.033-0.118-3.275v-3.335h0.97v7.971h-1.041l-2.53-4.044c-0.557-0.888-1.088-1.798-1.49-2.661l-0.035,0.012
				c0.059,1.005,0.082,1.963,0.082,3.288v3.405H114.195z"/>
			<path fill="#46484A" d="M127.996,75.11h-3.098v2.874h3.453v0.863h-4.482v-7.971h4.305v0.863h-3.275v2.52h3.098V75.11z"/>
		</g>
		<rect x="18" y="66" fill="none" stroke="#46484A" stroke-width="2" stroke-miterlimit="10" width="148" height="17"/>
		<g>
			<path fill="#46484A" d="M57.649,56.046c-0.976,0.488-2.928,0.976-5.429,0.976c-5.795,0-10.157-3.66-10.157-10.401
				c0-6.436,4.362-10.798,10.737-10.798c2.562,0,4.179,0.55,4.88,0.915l-0.641,2.166c-1.006-0.488-2.44-0.854-4.148-0.854
				c-4.819,0-8.022,3.08-8.022,8.479c0,5.032,2.898,8.266,7.9,8.266c1.617,0,3.264-0.335,4.332-0.854L57.649,56.046z"/>
			<path fill="#46484A" d="M63.625,36.159v20.559h-2.653V36.159H63.625z"/>
			<path fill="#46484A" d="M68.261,56.717V36.159h2.897l6.588,10.401c1.525,2.409,2.715,4.575,3.691,6.68l0.061-0.03
				c-0.244-2.745-0.305-5.246-0.305-8.449v-8.602h2.501v20.559h-2.684l-6.528-10.432c-1.434-2.288-2.806-4.637-3.843-6.863
				l-0.091,0.03c0.152,2.593,0.213,5.063,0.213,8.479v8.785H68.261z"/>
			<path fill="#46484A" d="M98.974,47.079h-7.992v7.412h8.907v2.227h-11.56V36.159h11.103v2.227h-8.449v6.497h7.992V47.079z"/>
			<path fill="#46484A" d="M120.659,47.689c-0.152-2.867-0.336-6.314-0.305-8.877h-0.092c-0.701,2.41-1.556,4.973-2.593,7.809
				l-3.63,9.975h-2.013l-3.325-9.791c-0.976-2.897-1.8-5.552-2.379-7.992h-0.061c-0.061,2.562-0.214,6.01-0.396,9.09l-0.549,8.815
				h-2.532l1.434-20.559h3.386l3.508,9.943c0.854,2.532,1.556,4.789,2.074,6.925h0.091c0.519-2.074,1.251-4.332,2.166-6.925
				l3.66-9.943h3.386l1.281,20.559h-2.593L120.659,47.689z"/>
			<path fill="#46484A" d="M130.874,50.25l-2.135,6.467h-2.745l6.985-20.559h3.202l7.016,20.559h-2.837l-2.196-6.467H130.874z
				 M137.615,48.176l-2.013-5.917c-0.458-1.342-0.763-2.562-1.068-3.752h-0.061c-0.305,1.22-0.641,2.471-1.037,3.722l-2.013,5.947
				H137.615z"/>
		</g>
		<g>
			<polygon fill="#46484A" points="27.387,42.369 28.789,45.208 31.922,45.664 29.654,47.874 30.19,50.996 27.387,49.522 
				24.583,50.996 25.12,47.874 22.852,45.664 25.985,45.208 			"/>
			<polygon fill="#46484A" points="157.474,42.369 158.875,45.208 162.009,45.664 159.741,47.874 160.277,50.996 157.474,49.522 
				154.671,50.996 155.206,47.874 152.938,45.664 156.072,45.208 			"/>
		</g>
		<g>
			<g>
				<g>
					
						<line fill="none" stroke="#46484A" stroke-width="3" stroke-linecap="round" stroke-miterlimit="10" x1="24.586" y1="18.984" x2="24.586" y2="18.984"/>
					
						<line fill="none" stroke="#46484A" stroke-width="3" stroke-linecap="round" stroke-miterlimit="10" stroke-dasharray="0,6" x1="31" y1="18.5" x2="60" y2="18.5"/>
					
						<line fill="none" stroke="#46484A" stroke-width="3" stroke-linecap="round" stroke-miterlimit="10" x1="63.176" y1="18.984" x2="63.176" y2="18.984"/>
				</g>
			</g>
			<g>
				<g>
					
						<line fill="none" stroke="#46484A" stroke-width="3" stroke-linecap="round" stroke-miterlimit="10" x1="122.307" y1="18.984" x2="122.307" y2="18.984"/>
					
						<line fill="none" stroke="#46484A" stroke-width="3" stroke-linecap="round" stroke-miterlimit="10" stroke-dasharray="0,6" x1="129" y1="18.5" x2="158" y2="18.5"/>
					
						<line fill="none" stroke="#46484A" stroke-width="3" stroke-linecap="round" stroke-miterlimit="10" x1="160.897" y1="18.984" x2="160.897" y2="18.984"/>
				</g>
			</g>
		</g>
		<g>
			
				<line fill="none" stroke="#46484A" stroke-width="3" stroke-linecap="round" stroke-miterlimit="10" stroke-dasharray="0,7" x1="24" y1="74.5" x2="48" y2="74.5"/>
			
				<line fill="none" stroke="#46484A" stroke-width="3" stroke-linecap="round" stroke-miterlimit="10" stroke-dasharray="0,7" x1="137" y1="74.5" x2="160" y2="74.5"/>
		</g>
	</g>
</g>
</svg>
