<?xml version="1.0" encoding="utf-8"?>
<!-- Generator: Adobe Illustrator 16.0.0, SVG Export Plug-In . SVG Version: 6.00 Build 0)  -->
<!DOCTYPE svg PUBLIC "-//W3C//DTD SVG 1.1//EN" "http://www.w3.org/Graphics/SVG/1.1/DTD/svg11.dtd">
<svg version="1.1" id="Layer_1" xmlns="http://www.w3.org/2000/svg" xmlns:xlink="http://www.w3.org/1999/xlink" x="0px" y="0px"
	 width="184.238px" height="93.363px" viewBox="0 0 184.238 93.363" enable-background="new 0 0 184.238 93.363"
	 xml:space="preserve">
<g>
	<g>
		<g>
			<path fill="#FFD55D" d="M184,77.389V15.976c-8,0-15.426-7.152-15.426-15.976H16.287c0,8.823-6.95,15.976-16.287,15.976v61.413
				C9.336,77.389,16.287,85,16.287,93h152.288C168.574,85,176,77.389,184,77.389z"/>
		</g>
		<path fill="#FFD55D" stroke="#46484A" stroke-width="2" stroke-miterlimit="10" d="M22.396,88C20.404,80,14,73.893,6,71.901
			V20.218C14,18.226,20.404,12,22.396,6h142.558C166.945,12,172,18.226,179,20.218v51.684C172,73.893,166.945,80,164.954,88H22.396z
			"/>
		<g>
			<path fill="#46484A" d="M57.428,20.612l-1.089,3.3h-1.401l3.564-10.49h1.634l3.58,10.49h-1.447l-1.121-3.3H57.428z
				 M60.867,19.554l-1.026-3.02c-0.234-0.685-0.39-1.307-0.545-1.914h-0.031c-0.156,0.623-0.327,1.26-0.529,1.898l-1.027,3.035
				H60.867z"/>
			<path fill="#46484A" d="M65.255,13.562c0.824-0.125,1.805-0.218,2.879-0.218c1.945,0,3.331,0.451,4.249,1.307
				c0.934,0.856,1.479,2.07,1.479,3.767c0,1.712-0.529,3.113-1.51,4.078c-0.98,0.981-2.6,1.51-4.638,1.51
				c-0.965,0-1.774-0.046-2.459-0.125V13.562z M66.608,22.838c0.343,0.062,0.841,0.078,1.37,0.078c2.895,0,4.467-1.619,4.467-4.451
				c0.016-2.475-1.386-4.047-4.249-4.047c-0.7,0-1.229,0.062-1.588,0.14V22.838z"/>
			<path fill="#46484A" d="M84.458,19.305c-0.078-1.463-0.171-3.222-0.155-4.529h-0.047c-0.358,1.23-0.794,2.537-1.323,3.984
				l-1.852,5.089h-1.027l-1.696-4.996c-0.498-1.479-0.919-2.833-1.215-4.078h-0.03c-0.031,1.308-0.109,3.066-0.203,4.638
				l-0.28,4.498h-1.291l0.731-10.49h1.728l1.79,5.074c0.436,1.292,0.793,2.443,1.058,3.533h0.047
				c0.265-1.058,0.639-2.21,1.105-3.533l1.867-5.074h1.728l0.654,10.49h-1.323L84.458,19.305z"/>
			<path fill="#46484A" d="M89.482,13.422v10.49h-1.354v-10.49H89.482z"/>
			<path fill="#46484A" d="M93.84,14.574h-3.191v-1.152h7.767v1.152h-3.206v9.338H93.84V14.574z"/>
			<path fill="#46484A" d="M111.845,18.558c0,3.611-2.195,5.525-4.872,5.525c-2.771,0-4.716-2.148-4.716-5.323
				c0-3.331,2.07-5.509,4.871-5.509C109.992,13.251,111.845,15.445,111.845,18.558z M103.704,18.729
				c0,2.241,1.214,4.249,3.347,4.249c2.147,0,3.361-1.977,3.361-4.358c0-2.085-1.089-4.264-3.346-4.264
				C104.825,14.356,103.704,16.426,103.704,18.729z"/>
			<path fill="#46484A" d="M113.601,23.912v-10.49h1.479l3.362,5.308c0.777,1.229,1.385,2.334,1.883,3.408l0.031-0.016
				c-0.125-1.4-0.155-2.677-0.155-4.311v-4.389h1.275v10.49h-1.369l-3.331-5.323c-0.731-1.167-1.432-2.366-1.961-3.502l-0.047,0.016
				c0.078,1.323,0.109,2.583,0.109,4.327v4.482H113.601z"/>
			<path fill="#46484A" d="M129.271,18.994h-4.078v3.782h4.545v1.136h-5.898v-10.49h5.665v1.136h-4.312v3.315h4.078V18.994z"/>
		</g>
		<g>
			<path fill="#46484A" d="M63.785,74.597h-4.077v3.782h4.544v1.136h-5.898v-10.49h5.665v1.136h-4.311v3.315h4.077V74.597z"/>
			<path fill="#46484A" d="M66.01,79.515v-10.49h1.479l3.361,5.308c0.778,1.229,1.386,2.334,1.884,3.408l0.03-0.016
				c-0.124-1.4-0.155-2.677-0.155-4.311v-4.389h1.276v10.49h-1.37l-3.33-5.323c-0.731-1.167-1.432-2.366-1.961-3.502l-0.047,0.016
				c0.078,1.323,0.108,2.583,0.108,4.327v4.482H66.01z"/>
			<path fill="#46484A" d="M78.24,70.177h-3.19v-1.152h7.767v1.152H79.61v9.338h-1.37V70.177z"/>
			<path fill="#46484A" d="M83.981,69.165c0.685-0.14,1.665-0.218,2.6-0.218c1.447,0,2.381,0.265,3.034,0.856
				c0.529,0.467,0.825,1.183,0.825,1.992c0,1.385-0.871,2.303-1.977,2.677v0.046c0.81,0.28,1.292,1.027,1.541,2.117
				c0.342,1.463,0.591,2.475,0.81,2.879h-1.401c-0.171-0.296-0.404-1.198-0.7-2.506c-0.312-1.447-0.871-1.992-2.102-2.039h-1.275
				v4.544h-1.354V69.165z M85.336,73.943h1.385c1.447,0,2.366-0.794,2.366-1.992c0-1.354-0.981-1.946-2.413-1.961
				c-0.653,0-1.12,0.062-1.338,0.124V73.943z"/>
			<path fill="#46484A" d="M94.127,76.216l-1.089,3.299h-1.401l3.564-10.49h1.634l3.58,10.49h-1.447l-1.121-3.299H94.127z
				 M97.566,75.157l-1.026-3.02c-0.234-0.685-0.39-1.307-0.545-1.914h-0.031c-0.156,0.623-0.327,1.261-0.529,1.898l-1.027,3.035
				H97.566z"/>
			<path fill="#46484A" d="M101.954,79.515v-10.49h1.479l3.361,5.308c0.778,1.229,1.386,2.334,1.884,3.408l0.03-0.016
				c-0.124-1.4-0.155-2.677-0.155-4.311v-4.389h1.276v10.49h-1.37l-3.33-5.323c-0.731-1.167-1.432-2.366-1.961-3.502l-0.047,0.016
				c0.078,1.323,0.108,2.583,0.108,4.327v4.482H101.954z"/>
			<path fill="#46484A" d="M119.523,79.173c-0.498,0.249-1.494,0.498-2.771,0.498c-2.957,0-5.183-1.868-5.183-5.308
				c0-3.284,2.226-5.509,5.479-5.509c1.307,0,2.132,0.28,2.49,0.467l-0.327,1.105c-0.514-0.249-1.245-0.436-2.117-0.436
				c-2.459,0-4.093,1.572-4.093,4.327c0,2.568,1.479,4.218,4.031,4.218c0.824,0,1.665-0.171,2.21-0.436L119.523,79.173z"/>
			<path fill="#46484A" d="M126.649,74.597h-4.078v3.782h4.545v1.136h-5.898v-10.49h5.665v1.136h-4.312v3.315h4.078V74.597z"/>
		</g>
		<g>
			<path fill="#46484A" d="M45.75,35.018h-8.039v-2.902h19.568v2.902h-8.079v23.529H45.75V35.018z"/>
			<path fill="#46484A" d="M63.63,32.115v26.432h-3.412V32.115H63.63z"/>
			<path fill="#46484A" d="M88.061,57.684c-1.255,0.628-3.765,1.255-6.98,1.255c-7.451,0-13.059-4.705-13.059-13.372
				c0-8.274,5.608-13.882,13.804-13.882c3.294,0,5.373,0.706,6.274,1.176l-0.823,2.785c-1.294-0.628-3.137-1.099-5.333-1.099
				c-6.196,0-10.313,3.961-10.313,10.902c0,6.47,3.726,10.627,10.157,10.627c2.078,0,4.196-0.432,5.568-1.098L88.061,57.684z"/>
			<path fill="#46484A" d="M92.333,32.115h3.412V44.86h0.118c0.706-1.02,1.412-1.961,2.078-2.823l8.079-9.922h4.235l-9.569,11.216
				l10.313,15.216h-4.039l-8.706-12.98l-2.51,2.902v10.078h-3.412V32.115z"/>
			<path fill="#46484A" d="M127.272,46.154h-10.274v9.529h11.451v2.863h-14.862V32.115h14.274v2.863h-10.863v8.353h10.274V46.154z"
				/>
			<path fill="#46484A" d="M138.525,35.018h-8.039v-2.902h19.568v2.902h-8.079v23.529h-3.451V35.018z"/>
		</g>
		<g>
			<line fill="#FFD55D" stroke="#46484A" stroke-width="2" stroke-miterlimit="10" x1="21" y1="73" x2="21" y2="21"/>
			<line fill="#FFD55D" stroke="#46484A" stroke-width="2" stroke-miterlimit="10" x1="164" y1="73" x2="164" y2="21"/>
		</g>
		<g>
			<path fill="#46484A" d="M175.075,62.411c0.021-0.201,0-0.434-0.032-0.751c-0.074-0.539-0.296-1.047-0.666-1.438
				c-0.413-0.455-1.015-0.782-1.83-0.909v0.032c0.465,0.38,0.74,0.93,0.74,1.618c0,1.237-0.93,2.03-2.104,2.03
				c-1.301,0-2.443-0.941-2.443-2.348c0-1.406,1.142-2.273,2.897-2.273c1.512,0,2.569,0.508,3.225,1.185
				c0.518,0.529,0.835,1.258,0.92,1.999c0.053,0.338,0.063,0.634,0.053,0.856H175.075z M171.121,62.072
				c0.856,0,1.459-0.518,1.459-1.322c0-0.624-0.307-1.11-0.719-1.354c-0.084-0.053-0.19-0.084-0.338-0.084
				c-1.174,0-2.073,0.434-2.073,1.406C169.45,61.512,170.147,62.072,171.121,62.072z"/>
			<path fill="#46484A" d="M174.663,56.03c0.169-0.265,0.434-0.878,0.434-1.523c0-1.195-0.762-1.565-1.333-1.554
				c-0.962,0.01-1.375,0.877-1.375,1.776v0.518h-0.698v-0.518c0-0.677-0.349-1.533-1.163-1.533c-0.55,0-1.036,0.349-1.036,1.206
				c0,0.55,0.243,1.079,0.455,1.375l-0.677,0.243c-0.264-0.359-0.529-1.058-0.529-1.798c0-1.354,0.804-1.967,1.639-1.967
				c0.708,0,1.311,0.423,1.618,1.269h0.021c0.169-0.846,0.804-1.533,1.766-1.533c1.1,0,2.062,0.856,2.062,2.506
				c0,0.771-0.243,1.448-0.465,1.787L174.663,56.03z"/>
			<path fill="#46484A" d="M173.986,49.639c-0.867,0-1.48-0.518-1.84-1.364l-0.032,0.011c-0.36,0.761-0.952,1.089-1.544,1.089
				c-1.089,0-1.83-0.92-1.83-2.125c0-1.332,0.835-1.999,1.692-1.999c0.582,0,1.206,0.286,1.607,1.132h0.032
				c0.338-0.857,0.941-1.385,1.776-1.385c1.195,0,1.999,1.025,1.999,2.337C175.847,48.772,174.991,49.639,173.986,49.639z
				 M170.507,48.497c0.687,0,1.057-0.518,1.269-1.312c-0.201-0.592-0.624-1.047-1.248-1.047c-0.55,0-1.121,0.328-1.121,1.164
				C169.408,48.074,169.915,48.497,170.507,48.497z M173.944,45.938c-0.835,0-1.237,0.582-1.501,1.512
				c0.232,0.804,0.761,1.237,1.417,1.237c0.698,0.032,1.311-0.497,1.311-1.375C175.17,46.478,174.652,45.938,173.944,45.938z"/>
			<path fill="#46484A" d="M169.725,40.837v0.021l0.645,1.195l-0.708,0.18l-0.804-1.501v-0.793h6.874v0.899H169.725z"/>
			<path fill="#46484A" d="M172.22,31.591c2.337,0,3.627,0.867,3.627,2.39c0,1.343-1.258,2.252-3.532,2.273
				c-2.305,0-3.574-0.994-3.574-2.39C168.741,32.416,170.031,31.591,172.22,31.591z M172.326,35.324c1.787,0,2.802-0.55,2.802-1.396
				c0-0.952-1.11-1.406-2.866-1.406c-1.692,0-2.802,0.434-2.802,1.396C169.46,34.731,170.455,35.324,172.326,35.324z"/>
		</g>
		<g>
			<path fill="#46484A" d="M9.556,30.953c-0.021,0.2,0,0.434,0.032,0.751c0.074,0.539,0.296,1.047,0.666,1.438
				c0.413,0.455,1.015,0.782,1.83,0.909V34.02c-0.465-0.381-0.74-0.931-0.74-1.618c0-1.237,0.93-2.03,2.104-2.03
				c1.301,0,2.443,0.941,2.443,2.348s-1.142,2.273-2.897,2.273c-1.512,0-2.569-0.508-3.225-1.185
				c-0.518-0.528-0.835-1.258-0.92-1.998c-0.053-0.339-0.063-0.635-0.053-0.856H9.556z M13.51,31.291
				c-0.856,0-1.459,0.519-1.459,1.322c0,0.624,0.307,1.11,0.719,1.354c0.084,0.053,0.19,0.084,0.338,0.084
				c1.174,0,2.073-0.434,2.073-1.406C15.181,31.852,14.483,31.291,13.51,31.291z"/>
			<path fill="#46484A" d="M9.968,37.333c-0.169,0.265-0.434,0.878-0.434,1.523c0,1.194,0.762,1.564,1.333,1.554
				c0.962-0.01,1.375-0.877,1.375-1.776v-0.518h0.698v0.518c0,0.677,0.349,1.533,1.163,1.533c0.55,0,1.036-0.349,1.036-1.205
				c0-0.55-0.243-1.079-0.455-1.375l0.677-0.243c0.264,0.359,0.529,1.058,0.529,1.798c0,1.354-0.804,1.967-1.639,1.967
				c-0.708,0-1.311-0.423-1.618-1.269h-0.021c-0.169,0.846-0.804,1.533-1.766,1.533c-1.1,0-2.062-0.856-2.062-2.507
				c0-0.771,0.243-1.448,0.465-1.786L9.968,37.333z"/>
			<path fill="#46484A" d="M10.645,43.725c0.867,0,1.48,0.518,1.84,1.364l0.032-0.011c0.36-0.762,0.952-1.089,1.544-1.089
				c1.089,0,1.83,0.92,1.83,2.125c0,1.332-0.835,1.999-1.692,1.999c-0.582,0-1.206-0.286-1.607-1.132h-0.032
				c-0.338,0.856-0.941,1.385-1.776,1.385c-1.195,0-1.999-1.025-1.999-2.337C8.784,44.592,9.64,43.725,10.645,43.725z
				 M10.687,47.426c0.835,0,1.237-0.582,1.501-1.513c-0.232-0.804-0.761-1.237-1.417-1.237c-0.698-0.031-1.311,0.497-1.311,1.375
				C9.46,46.887,9.979,47.426,10.687,47.426z M14.124,44.866c-0.687,0-1.057,0.519-1.269,1.312c0.201,0.592,0.624,1.047,1.248,1.047
				c0.55,0,1.121-0.328,1.121-1.163C15.223,45.289,14.716,44.866,14.124,44.866z"/>
			<path fill="#46484A" d="M14.906,52.526v-0.021l-0.645-1.195l0.708-0.18l0.804,1.501v0.794H8.9v-0.899H14.906z"/>
			<path fill="#46484A" d="M12.411,61.772c-2.337,0-3.627-0.867-3.627-2.39c0-1.343,1.258-2.252,3.532-2.273
				c2.305,0,3.574,0.994,3.574,2.39C15.89,60.948,14.6,61.772,12.411,61.772z M12.305,58.04c-1.787,0-2.802,0.55-2.802,1.396
				c0,0.952,1.11,1.406,2.866,1.406c1.692,0,2.802-0.434,2.802-1.396C15.17,58.632,14.176,58.04,12.305,58.04z"/>
		</g>
	</g>
</g>
</svg>
