<?xml version="1.0" encoding="utf-8"?>
<!-- Generator: Adobe Illustrator 16.0.0, SVG Export Plug-In . SVG Version: 6.00 Build 0)  -->
<!DOCTYPE svg PUBLIC "-//W3C//DTD SVG 1.1//EN" "http://www.w3.org/Graphics/SVG/1.1/DTD/svg11.dtd">
<svg version="1.1" id="Layer_1" xmlns="http://www.w3.org/2000/svg" xmlns:xlink="http://www.w3.org/1999/xlink" x="0px" y="0px"
	 width="184.238px" height="93.363px" viewBox="0 0 184.238 93.363" enable-background="new 0 0 184.238 93.363"
	 xml:space="preserve">
<g>
	<g>
		<g>
			<path fill="#73C7AB" d="M184.117,88.178c-2.03,0-3.538-1.646-3.538-3.676c0-2.03,1.439-3.675,3.469-3.675
				c0.053,0-0.048,0.005-0.048,0.008v-3.246c0,0.002,0.17,0.008,0.117,0.008c-2.03,0-3.538-1.646-3.538-3.675
				c0-2.03,1.439-3.676,3.469-3.676c0.053,0-0.048,0.005-0.048,0.008V64.72c-10,0-18.038-8.076-18.038-18.039
				c0-9.962,8.038-18.038,18.038-18.038v-5.829c0,0.002,0.17,0.008,0.117,0.008c-2.03,0-3.538-1.646-3.538-3.675
				c0-2.03,1.439-3.676,3.469-3.676c0.053,0-0.048,0.006-0.048,0.008v-3.247c0,0.002,0.17,0.008,0.117,0.008
				c-2.03,0-3.538-1.646-3.538-3.675c0-2.03,1.439-3.676,3.469-3.676c0.053,0-0.048,0.006-0.048,0.008V0H0v4.923
				c0.623-0.02,0.463-0.033,0.621-0.033c2.03,0,3.753,1.646,3.753,3.676c0,2.03-1.763,3.675-3.792,3.675
				c-0.158,0,0.041-0.014-0.582-0.033v3.295c0.623-0.019,0.463-0.033,0.621-0.033c2.03,0,3.753,1.646,3.753,3.676
				c0,2.03-1.763,3.675-3.792,3.675c-0.158,0,0.041-0.013-0.582-0.033v5.902c0.623-0.028,0.982-0.048,1.401-0.048
				c9.961,0,18.116,8.076,18.116,18.038c0,9.963-8.193,18.039-18.155,18.039c-0.419,0-0.739-0.02-1.362-0.048v5.605
				c0.623-0.019,0.463-0.033,0.621-0.033c2.03,0,3.753,1.646,3.753,3.676c0,2.029-1.763,3.675-3.792,3.675
				c-0.158,0,0.041-0.013-0.582-0.033v3.296c0.623-0.02,0.463-0.033,0.621-0.033c2.03,0,3.753,1.645,3.753,3.675
				c0,2.03-1.763,3.676-3.792,3.676c-0.158,0,0.041-0.013-0.582-0.033V93h184v-4.83C184,88.172,184.17,88.178,184.117,88.178z"/>
		</g>
		<path fill="none" stroke="#46484A" stroke-width="2" stroke-miterlimit="10" d="M158,77.775c0,3.438-2.787,6.225-6.225,6.225
			H31.225C27.787,84,25,81.213,25,77.775V15.225C25,11.787,27.787,9,31.225,9h120.551c3.438,0,6.225,2.787,6.225,6.225V77.775z"/>
		<g>
			<polygon fill="#46484A" points="31.707,72.513 33.985,71.388 34.35,68.874 36.124,70.693 38.627,70.264 37.445,72.513 
				38.627,74.762 36.124,74.331 34.35,76.151 33.985,73.637 			"/>
			<polygon fill="#46484A" points="31.707,59.753 33.985,58.628 34.35,56.113 36.124,57.933 38.627,57.504 37.445,59.753 
				38.627,62.002 36.124,61.571 34.35,63.391 33.985,60.876 			"/>
			<polygon fill="#46484A" points="31.707,46.993 33.985,45.868 34.35,43.354 36.124,45.173 38.627,44.744 37.445,46.993 
				38.627,49.242 36.124,48.812 34.35,50.631 33.985,48.118 			"/>
			<polygon fill="#46484A" points="31.707,34.233 33.985,33.108 34.35,30.595 36.124,32.414 38.627,31.984 37.445,34.233 
				38.627,36.482 36.124,36.053 34.35,37.872 33.985,35.357 			"/>
			<polygon fill="#46484A" points="31.707,21.473 33.985,20.349 34.35,17.835 36.124,19.654 38.627,19.224 37.445,21.473 
				38.627,23.722 36.124,23.292 34.35,25.112 33.985,22.598 			"/>
		</g>
		<line fill="none" stroke="#46484A" stroke-width="2" stroke-miterlimit="10" x1="45" y1="9" x2="45" y2="84"/>
		<g>
			<polygon fill="#46484A" points="153.154,72.513 150.876,71.388 150.511,68.874 148.737,70.693 146.233,70.264 147.415,72.513 
				146.233,74.762 148.737,74.331 150.511,76.151 150.876,73.637 			"/>
			<polygon fill="#46484A" points="153.154,59.753 150.876,58.628 150.511,56.113 148.737,57.933 146.233,57.504 147.415,59.753 
				146.233,62.002 148.737,61.571 150.511,63.391 150.876,60.876 			"/>
			<polygon fill="#46484A" points="153.154,46.993 150.876,45.868 150.511,43.354 148.737,45.173 146.233,44.744 147.415,46.993 
				146.233,49.242 148.737,48.812 150.511,50.631 150.876,48.118 			"/>
			<polygon fill="#46484A" points="153.154,34.233 150.876,33.108 150.511,30.595 148.737,32.414 146.233,31.984 147.415,34.233 
				146.233,36.482 148.737,36.053 150.511,37.872 150.876,35.357 			"/>
			<polygon fill="#46484A" points="153.154,21.473 150.876,20.349 150.511,17.835 148.737,19.654 146.233,19.224 147.415,21.473 
				146.233,23.722 148.737,23.292 150.511,25.112 150.876,22.598 			"/>
		</g>
		<line fill="none" stroke="#46484A" stroke-width="2" stroke-miterlimit="10" x1="139" y1="9" x2="139" y2="84"/>
		<g>
			<g>
				<path fill="#46484A" d="M66.728,26.623l-1.264,3.826h-1.625l4.134-12.166h1.896l4.152,12.166h-1.679l-1.3-3.826H66.728z
					 M70.717,25.396l-1.191-3.502c-0.271-0.795-0.451-1.517-0.632-2.221h-0.036c-0.181,0.722-0.379,1.462-0.613,2.202l-1.191,3.521
					H70.717z"/>
				<path fill="#46484A" d="M77.612,18.445c0.956-0.145,2.094-0.253,3.339-0.253c2.257,0,3.863,0.523,4.928,1.517
					c1.083,0.993,1.715,2.4,1.715,4.368c0,1.986-0.613,3.61-1.751,4.729c-1.137,1.138-3.014,1.751-5.379,1.751
					c-1.119,0-2.058-0.054-2.852-0.145V18.445z M79.183,29.204c0.396,0.072,0.975,0.09,1.588,0.09c3.357,0,5.181-1.877,5.181-5.162
					c0.019-2.87-1.606-4.693-4.928-4.693c-0.812,0-1.426,0.072-1.841,0.162V29.204z"/>
				<path fill="#46484A" d="M101.69,25.106c-0.09-1.697-0.198-3.736-0.181-5.253h-0.054c-0.415,1.426-0.921,2.942-1.534,4.621
					l-2.148,5.902h-1.191l-1.968-5.794c-0.577-1.715-1.064-3.285-1.407-4.729h-0.036c-0.036,1.517-0.127,3.556-0.235,5.379
					l-0.324,5.217h-1.499l0.849-12.166h2.004l2.076,5.885c0.505,1.498,0.92,2.834,1.228,4.098h0.054
					c0.307-1.228,0.74-2.563,1.281-4.098l2.166-5.885h2.004l0.759,12.166h-1.535L101.69,25.106z"/>
				<path fill="#46484A" d="M109.326,18.283v12.166h-1.57V18.283H109.326z"/>
				<path fill="#46484A" d="M116.185,19.619h-3.7v-1.336h9.007v1.336h-3.719v10.83h-1.588V19.619z"/>
			</g>
			<g>
				<path fill="#46484A" d="M62.562,74.826c0.283,0.03,0.612,0,1.061-0.045c0.762-0.104,1.479-0.418,2.031-0.941
					c0.643-0.583,1.105-1.434,1.285-2.584h-0.045c-0.538,0.657-1.314,1.046-2.286,1.046c-1.747,0-2.868-1.314-2.868-2.973
					c0-1.837,1.33-3.451,3.316-3.451c1.987,0,3.212,1.613,3.212,4.093c0,2.136-0.717,3.63-1.673,4.556
					c-0.747,0.732-1.777,1.18-2.823,1.3c-0.479,0.075-0.896,0.09-1.21,0.075V74.826z M63.04,69.239c0,1.21,0.732,2.062,1.867,2.062
					c0.882,0,1.569-0.433,1.912-1.016c0.075-0.12,0.12-0.269,0.12-0.478c0-1.658-0.612-2.928-1.987-2.928
					C63.832,66.878,63.04,67.865,63.04,69.239z"/>
				<path fill="#46484A" d="M71.271,74.243c0.374,0.239,1.24,0.612,2.151,0.612c1.688,0,2.211-1.075,2.196-1.882
					c-0.016-1.359-1.24-1.942-2.51-1.942h-0.732v-0.986h0.732c0.956,0,2.166-0.493,2.166-1.643c0-0.777-0.493-1.464-1.703-1.464
					c-0.776,0-1.523,0.343-1.942,0.642l-0.343-0.956c0.508-0.374,1.493-0.747,2.539-0.747c1.912,0,2.778,1.135,2.778,2.315
					c0,1-0.598,1.852-1.792,2.285v0.03c1.194,0.239,2.166,1.135,2.166,2.495c0,1.554-1.21,2.913-3.541,2.913
					c-1.09,0-2.046-0.344-2.524-0.658L71.271,74.243z"/>
				<path fill="#46484A" d="M79.995,73.287c0-1.225,0.731-2.091,1.927-2.599l-0.015-0.045c-1.076-0.508-1.539-1.345-1.539-2.181
					c0-1.539,1.3-2.584,3.003-2.584c1.882,0,2.823,1.18,2.823,2.39c0,0.821-0.403,1.703-1.599,2.271v0.045
					c1.21,0.478,1.957,1.329,1.957,2.509c0,1.688-1.449,2.824-3.302,2.824C81.22,75.917,79.995,74.706,79.995,73.287z
					 M85.224,73.228c0-1.18-0.822-1.748-2.137-2.122c-1.135,0.329-1.748,1.076-1.748,2.002c-0.044,0.986,0.702,1.853,1.942,1.853
					C84.462,74.96,85.224,74.228,85.224,73.228z M81.608,68.373c0,0.971,0.731,1.494,1.853,1.792
					c0.836-0.284,1.479-0.881,1.479-1.763c0-0.777-0.463-1.583-1.644-1.583C82.206,66.819,81.608,67.536,81.608,68.373z"/>
				<path fill="#46484A" d="M89.271,75.752v-0.807l1.03-1.001c2.479-2.36,3.601-3.615,3.615-5.079c0-0.986-0.479-1.897-1.927-1.897
					c-0.882,0-1.613,0.448-2.062,0.822l-0.419-0.926c0.673-0.568,1.629-0.986,2.749-0.986c2.092,0,2.973,1.434,2.973,2.823
					c0,1.792-1.3,3.242-3.346,5.213l-0.777,0.717v0.03h4.362v1.09H89.271z"/>
				<path fill="#46484A" d="M101.281,67.267h-0.03l-1.688,0.911l-0.254-1.001l2.121-1.135h1.12v9.71h-1.27V67.267z"/>
				<path fill="#46484A" d="M108.347,74.826c0.284,0.03,0.613,0,1.062-0.045c0.762-0.104,1.479-0.418,2.031-0.941
					c0.643-0.583,1.105-1.434,1.284-2.584h-0.044c-0.538,0.657-1.315,1.046-2.286,1.046c-1.748,0-2.868-1.314-2.868-2.973
					c0-1.837,1.33-3.451,3.316-3.451c1.987,0,3.212,1.613,3.212,4.093c0,2.136-0.717,3.63-1.673,4.556
					c-0.747,0.732-1.778,1.18-2.823,1.3c-0.479,0.075-0.896,0.09-1.211,0.075V74.826z M108.825,69.239
					c0,1.21,0.732,2.062,1.867,2.062c0.882,0,1.568-0.433,1.912-1.016c0.075-0.12,0.119-0.269,0.119-0.478
					c0-1.658-0.612-2.928-1.986-2.928C109.617,66.878,108.825,67.865,108.825,69.239z"/>
				<path fill="#46484A" d="M117.503,74.826c0.284,0.03,0.613,0,1.062-0.045c0.762-0.104,1.479-0.418,2.031-0.941
					c0.643-0.583,1.105-1.434,1.284-2.584h-0.044c-0.538,0.657-1.315,1.046-2.286,1.046c-1.748,0-2.868-1.314-2.868-2.973
					c0-1.837,1.33-3.451,3.316-3.451c1.987,0,3.212,1.613,3.212,4.093c0,2.136-0.717,3.63-1.673,4.556
					c-0.747,0.732-1.778,1.18-2.823,1.3c-0.479,0.075-0.896,0.09-1.211,0.075V74.826z M117.981,69.239
					c0,1.21,0.732,2.062,1.867,2.062c0.882,0,1.568-0.433,1.912-1.016c0.075-0.12,0.119-0.269,0.119-0.478
					c0-1.658-0.612-2.928-1.986-2.928C118.773,66.878,117.981,67.865,117.981,69.239z"/>
			</g>
			<g>
				<path fill="#46484A" d="M81.451,48.228c0,6.931-4.212,10.606-9.351,10.606c-5.318,0-9.053-4.123-9.053-10.218
					c0-6.394,3.974-10.576,9.351-10.576C77.896,38.04,81.451,42.252,81.451,48.228z M65.826,48.557c0,4.302,2.33,8.156,6.424,8.156
					c4.122,0,6.453-3.794,6.453-8.366c0-4.003-2.092-8.186-6.424-8.186C67.978,40.161,65.826,44.135,65.826,48.557z"/>
				<path fill="#46484A" d="M87.814,58.505V38.369h2.839l6.453,10.188c1.494,2.36,2.659,4.481,3.615,6.543l0.06-0.03
					c-0.239-2.688-0.299-5.139-0.299-8.276v-8.425h2.45v20.137h-2.629L93.91,48.288c-1.404-2.241-2.749-4.542-3.765-6.722
					l-0.09,0.03c0.149,2.54,0.209,4.959,0.209,8.306v8.604H87.814z"/>
				<path fill="#46484A" d="M120.888,49.064h-7.827v7.26h8.724v2.181h-11.323V38.369h10.875v2.181h-8.275v6.364h7.827V49.064z"/>
			</g>
		</g>
	</g>
</g>
</svg>
